<?xml version="1.0" encoding="UTF-8"?>
<svg xmlns="http://www.w3.org/2000/svg" xmlns:xlink="http://www.w3.org/1999/xlink" width="375pt" height="374.999991pt" viewBox="0 0 375 374.999991" version="1.2">
<defs>
<clipPath id="clip1">
  <path d="M 173.421875 176 L 257 176 L 257 233 L 173.421875 233 Z M 173.421875 176 "/>
</clipPath>
<clipPath id="clip2">
  <path d="M 173.421875 134 L 257 134 L 257 191 L 173.421875 191 Z M 173.421875 134 "/>
</clipPath>
<clipPath id="clip3">
  <path d="M 118.0625 100 L 200.5625 100 L 200.5625 196 L 118.0625 196 Z M 118.0625 100 "/>
</clipPath>
</defs>
<g id="surface1">
<g clip-path="url(#clip1)" clip-rule="nonzero">
<path style=" stroke:none;fill-rule:nonzero;fill:rgb(7.058716%,12.159729%,59.609985%);fill-opacity:1;" d="M 253.851562 195.597656 L 181.148438 232.238281 C 178.03125 233.808594 173.875 231.191406 173.875 227.527344 L 173.875 218.105469 C 173.875 216.011719 174.914062 214.441406 176.992188 213.394531 L 249.695312 176.753906 C 252.8125 175.183594 256.964844 177.800781 256.964844 181.464844 L 256.964844 190.886719 C 256.964844 192.980469 255.929688 194.550781 253.851562 195.597656 Z M 253.851562 195.597656 "/>
</g>
<g clip-path="url(#clip2)" clip-rule="nonzero">
<path style=" stroke:none;fill-rule:nonzero;fill:rgb(7.058716%,12.159729%,59.609985%);fill-opacity:1;" d="M 249.695312 190.363281 L 176.992188 153.722656 C 175.433594 152.675781 173.875 151.105469 173.875 149.011719 L 173.875 139.589844 C 173.875 135.925781 178.03125 133.308594 181.148438 134.878906 L 253.851562 171.519531 C 255.929688 172.566406 256.964844 174.136719 256.964844 176.230469 L 256.964844 185.652344 C 256.964844 189.316406 252.8125 191.933594 249.695312 190.363281 Z M 249.695312 190.363281 "/>
</g>
<g clip-path="url(#clip3)" clip-rule="nonzero">
<path style=" stroke:none;fill-rule:nonzero;fill:rgb(5.099487%,9.01947%,37.249756%);fill-opacity:1;" d="M 195.082031 100.132812 L 118.019531 147.574219 L 195.082031 195.019531 L 200.6875 185.890625 L 138.453125 147.574219 L 200.6875 109.261719 Z M 195.082031 100.132812 "/>
</g>
</g>
</svg>
